<?xml version="1.0" encoding="UTF-8" standalone="no"?>
<!-- Created with Inkscape (http://www.inkscape.org/) -->

<svg
   xmlns:svg="http://www.w3.org/2000/svg"
   xmlns="http://www.w3.org/2000/svg"
   version="1.1"
   width="400"
   height="400"
   id="svg4008">
  <defs
     id="defs4010">
    <filter
       color-interpolation-filters="sRGB"
       id="filter3888">
      <feGaussianBlur
         id="feGaussianBlur3890"
         stdDeviation="3.3161111" />
    </filter>
  </defs>
  <g
     transform="translate(0.49999477,-651.86215)"
     id="layer1">
    <g
       transform="matrix(0.29510344,0,0,0.29510344,-2889.8642,-2981.7528)"
       id="g4002"
       style="fill-rule:evenodd">
      <path
         d="m 9907.9904,12313.021 1121.5196,0 c 64.8,0 116.968,52.169 116.968,116.969 l 0,1121.52 c 0,64.8 -52.168,116.968 -116.968,116.968 l -1121.5196,0 c -64.8008,0 -116.9689,-52.168 -116.9689,-116.968 l 0,-1121.52 c 0,-64.8 52.1681,-116.969 116.9689,-116.969 z"
         id="rect62-7"
         style="fill:#000000;fill-opacity:1" />
      <path
         d="m 9946.6919,12359.442 1047.5041,0 c 60.524,0 109.25,48.726 109.25,109.25 l 0,1047.504 c 0,60.524 -48.726,109.25 -109.25,109.25 l -1047.5041,0 c -60.5243,0 -109.2495,-48.726 -109.2495,-109.25 l 0,-1047.504 c 0,-60.524 48.7252,-109.25 109.2495,-109.25 z"
         id="rect62-7-4"
         style="fill:#ffffff;fill-opacity:1" />
      <g
         transform="scale(0.99357589,1.0064656)"
         id="text82-4"
         style="font-size:922.34381104px;font-weight:normal;fill:#000000;fill-opacity:1;font-family:Zurich BdXCn BT">
        <path
           d="m 10185.256,12555.252 272.469,0 0,102.683 -135.559,0 0,163.032 126.102,0 0,102.682 -126.102,0 0,193.657 147.269,0 0,102.232 -284.179,0 z"
           id="path4065"
           style="font-size:922.34381104px;font-weight:normal;fill:#000000;fill-opacity:1;font-family:Zurich BdXCn BT" />
      </g>
      <g
         transform="scale(1.0020293,0.99797483)"
         id="text84-0"
         style="font-size:928.68463135px;font-weight:normal;fill:#000000;fill-opacity:1;font-family:Zurich BdXCn BT">
        <path
           d="m 10634.004,12762.916 0,188.186 12.243,0 c 26.905,0 45.497,-5.517 55.776,-16.551 10.278,-11.034 15.417,-30.911 15.418,-59.63 l 0,-35.823 c 0,-28.719 -5.14,-48.596 -15.418,-59.63 -10.279,-11.034 -28.871,-16.551 -55.776,-16.552 z m -129.236,-99.761 167.327,0 c 65.6,0 112.684,12.093 141.252,36.277 28.568,24.185 42.852,63.787 42.852,118.806 l 0,28.115 c 0,48.067 -10.279,83.739 -30.835,107.016 -20.557,23.278 -54.567,38.394 -102.028,45.346 49.275,4.233 83.738,18.592 103.388,43.079 19.65,24.487 29.475,66.507 29.475,126.062 l 0,164.152 -137.852,0 0,-205.417 c 0,-33.556 -4.61,-54.793 -13.83,-63.711 -9.221,-8.918 -27.737,-13.377 -55.549,-13.377 l -14.964,0 0,282.505 -129.236,0 z"
           id="path4062"
           style="font-size:928.68463135px;font-weight:normal;fill:#000000;fill-opacity:1;font-family:Zurich BdXCn BT" />
      </g>
    </g>
  </g>
</svg>
